<svg width="21" height="21" viewBox="0 0 21 21" fill="none" xmlns="http://www.w3.org/2000/svg">
<path d="M20.4872 3.5L17.2436 0.256375L16.0064 1.49363L17.5 2.98725V5.25C17.5 5.71413 17.6844 6.15925 18.0126 6.48744C18.3408 6.81563 18.7859 7 19.25 7V15.75C19.25 15.9821 19.1578 16.2046 18.9937 16.3687C18.8296 16.5328 18.6071 16.625 18.375 16.625C18.1429 16.625 17.9204 16.5328 17.7563 16.3687C17.5922 16.2046 17.5 15.9821 17.5 15.75V14.875C17.5 14.1788 17.2234 13.5111 16.7312 13.0188C16.2389 12.5266 15.5712 12.25 14.875 12.25H14V2.625C14 1.92881 13.7234 1.26113 13.2312 0.768845C12.7389 0.276562 12.0712 0 11.375 0L2.625 0C1.92881 0 1.26113 0.276562 0.768845 0.768845C0.276562 1.26113 0 1.92881 0 2.625L0 21H14V14H14.875C15.1071 14 15.3296 14.0922 15.4937 14.2563C15.6578 14.4204 15.75 14.6429 15.75 14.875V15.75C15.75 16.4462 16.0266 17.1139 16.5188 17.6062C17.0111 18.0984 17.6788 18.375 18.375 18.375C19.0712 18.375 19.7389 18.0984 20.2312 17.6062C20.7234 17.1139 21 16.4462 21 15.75V4.73725C20.9988 4.27337 20.8146 3.82871 20.4872 3.5ZM2.625 1.75H11.375C11.6071 1.75 11.8296 1.84219 11.9937 2.00628C12.1578 2.17038 12.25 2.39294 12.25 2.625V7.875H1.75V2.625C1.75 2.39294 1.84219 2.17038 2.00628 2.00628C2.17038 1.84219 2.39294 1.75 2.625 1.75ZM1.75 19.25V9.625H12.25V19.25H1.75Z" fill="black"/>
</svg>