<svg width="157" height="157" viewBox="0 0 157 157" fill="none" xmlns="http://www.w3.org/2000/svg">
<path d="M78.5 0C121.854 0 157 35.1456 157 78.5C157 121.854 121.854 157 78.5 157C35.1456 157 0 121.854 0 78.5C0 35.1456 35.1456 0 78.5 0ZM20.3721 112.834C32.124 132.687 53.7573 146 78.5 146C82.7021 146 86.8141 145.614 90.8037 144.879L66.7832 103.072L20.3721 112.834ZM98.377 96.4258L93.2344 144.386C120.889 138.228 142.148 115.106 145.528 86.5059L98.377 96.4258ZM27.3555 34.4473C17.1628 46.2701 11 61.6653 11 78.5C11 89.9709 13.8623 100.773 18.9102 110.232L50.6992 75.0781L27.3555 34.4473ZM78 91C75.2386 91 73 93.4624 73 96.5C73 99.5376 75.2386 102 78 102C80.7614 102 83 99.5376 83 96.5C83 93.4624 80.7614 91 78 91ZM69.2715 87.3018C67.218 85.2562 63.8952 85.263 61.8496 87.3164C59.8041 89.3699 59.8099 92.6927 61.8633 94.7383C63.9168 96.7839 67.2406 96.7772 69.2861 94.7236C71.3313 92.6701 71.3248 89.3472 69.2715 87.3018ZM95.4463 86.8838C93.3485 84.8838 90.0265 84.9629 88.0264 87.0605C86.0263 89.1583 86.1055 92.4803 88.2031 94.4805C90.3009 96.4807 93.6228 96.4014 95.623 94.3037C97.6233 92.206 97.544 88.884 95.4463 86.8838ZM101.819 64.3242L145.776 84.0059C145.923 82.1899 146 80.3538 146 78.5C146 51.3534 129.975 27.9503 106.868 17.2334L101.819 64.3242ZM60.084 73.0381C57.186 73.0823 54.872 75.4672 54.916 78.3652C54.9601 81.2634 57.3459 83.5773 60.2441 83.5332C63.1421 83.489 65.456 81.104 65.4121 78.2061C65.368 75.3079 62.9822 72.994 60.084 73.0381ZM96.8174 72.4785C93.9194 72.5228 91.6063 74.9086 91.6504 77.8066C91.6947 80.7047 94.0794 83.0187 96.9775 82.9746C99.8757 82.9305 102.19 80.5447 102.146 77.6465C102.101 74.7484 99.7155 72.4344 96.8174 72.4785ZM68.8584 61.5312C66.7607 59.5313 63.4386 59.6104 61.4385 61.708C59.4383 63.8057 59.5176 67.1277 61.6152 69.1279C63.7129 71.1281 67.0349 71.0497 69.0352 68.9521C71.0354 66.8544 70.9561 63.5315 68.8584 61.5312ZM95.1982 61.2734C93.1448 59.2281 89.8219 59.2348 87.7764 61.2881C85.7309 63.3415 85.7369 66.6644 87.79 68.71C89.8436 70.7555 93.1673 70.7498 95.2129 68.6963C97.2585 66.6427 97.2518 63.319 95.1982 61.2734ZM78 54C75.2386 54 73 56.4624 73 59.5C73 62.5376 75.2386 65 78 65C80.7614 65 83 62.5376 83 59.5C83 56.4624 80.7614 54 78 54ZM78.5 11C59.2516 11 41.8844 19.0562 29.5879 31.9814L72.3525 51.1309L104.097 16.0225C96.203 12.785 87.56 11 78.5 11Z" fill="#D97218"/>
</svg>