<svg width="376" height="157" viewBox="0 0 376 157" fill="none" xmlns="http://www.w3.org/2000/svg">
<path d="M78.5 0C121.854 0 157 35.1456 157 78.5C157 121.854 121.854 157 78.5 157C35.1456 157 0 121.854 0 78.5C0 35.1456 35.1456 0 78.5 0ZM78.5 11C41.2208 11 11 41.2208 11 78.5C11 115.779 41.2208 146 78.5 146C115.779 146 146 115.779 146 78.5C146 41.2208 115.779 11 78.5 11Z" fill="black"/>
<path d="M101.819 64.3242L149.497 85.6719L98.377 96.4258L92.8076 148.367L66.7832 103.072L15.6621 113.825L50.6992 75.0781L24.6748 29.7822L72.3525 51.1309L107.389 12.3828L101.819 64.3242ZM78 91C75.2386 91 73 93.4624 73 96.5C73 99.5376 75.2386 102 78 102C80.7614 102 83 99.5376 83 96.5C83 93.4624 80.7614 91 78 91ZM69.2715 87.3018C67.218 85.2562 63.8952 85.263 61.8496 87.3164C59.8041 89.3699 59.8099 92.6927 61.8633 94.7383C63.9168 96.7839 67.2406 96.7772 69.2861 94.7236C71.3313 92.6701 71.3248 89.3472 69.2715 87.3018ZM95.4463 86.8838C93.3485 84.8838 90.0265 84.9629 88.0264 87.0605C86.0263 89.1583 86.1055 92.4803 88.2031 94.4805C90.3009 96.4807 93.6228 96.4014 95.623 94.3037C97.6233 92.206 97.544 88.884 95.4463 86.8838ZM60.084 73.0381C57.186 73.0823 54.872 75.4672 54.916 78.3652C54.9601 81.2634 57.3459 83.5773 60.2441 83.5332C63.1422 83.489 65.456 81.104 65.4121 78.2061C65.368 75.3079 62.9822 72.994 60.084 73.0381ZM96.8174 72.4785C93.9194 72.5228 91.6063 74.9086 91.6504 77.8066C91.6947 80.7047 94.0794 83.0187 96.9775 82.9746C99.8757 82.9305 102.19 80.5447 102.146 77.6465C102.101 74.7484 99.7155 72.4344 96.8174 72.4785ZM68.8584 61.5312C66.7607 59.5313 63.4386 59.6104 61.4385 61.708C59.4383 63.8057 59.5176 67.1277 61.6152 69.1279C63.7129 71.1281 67.0349 71.0497 69.0352 68.9521C71.0354 66.8544 70.9561 63.5315 68.8584 61.5312ZM95.1982 61.2734C93.1448 59.2281 89.8219 59.2348 87.7764 61.2881C85.7309 63.3415 85.7369 66.6644 87.79 68.71C89.8436 70.7555 93.1673 70.7498 95.2129 68.6963C97.2585 66.6427 97.2518 63.319 95.1982 61.2734ZM78 54C75.2386 54 73 56.4624 73 59.5C73 62.5376 75.2386 65 78 65C80.7614 65 83 62.5376 83 59.5C83 56.4624 80.7614 54 78 54Z" fill="black"/>
<path d="M282.869 97C280.469 97 278.735 96.5067 277.669 95.52C276.602 94.5067 276.069 92.8933 276.069 90.68V85.64C276.069 83.32 276.935 81.68 278.669 80.72C277.202 79.68 276.469 78.1333 276.469 76.08V75.24C276.469 73.08 277.042 71.5067 278.189 70.52C279.362 69.5067 281.082 69 283.349 69H287.589V72H282.869C281.855 72 281.109 72.2267 280.629 72.68C280.175 73.1333 279.949 73.8667 279.949 74.88V76.48C279.949 77.36 280.229 78.0667 280.789 78.6C281.349 79.1333 282.042 79.4 282.869 79.4H292.589V82.4H289.429V97H282.869ZM282.469 82.4C281.589 82.4 280.882 82.6667 280.349 83.2C279.815 83.7067 279.549 84.4 279.549 85.28V91.08C279.549 92.0933 279.789 92.84 280.269 93.32C280.749 93.7733 281.495 94 282.509 94H286.189V82.4H282.469ZM319.413 97L317.893 89.92H310.093L308.533 97H304.973L311.733 69H316.333L322.973 97H319.413ZM313.973 71.64L310.733 86.92H317.253L313.973 71.64ZM337.133 96.08C336.253 96.6933 335.186 97 333.933 97H333.373C331.213 97 329.599 96.4933 328.533 95.48C327.493 94.4667 326.973 92.84 326.973 90.6V77H330.373V91.4C330.373 92.2 330.599 92.84 331.053 93.32C331.533 93.7733 332.173 94 332.973 94H334.333C335.186 94 335.813 93.7867 336.213 93.36C336.639 92.9333 336.879 92.4533 336.933 91.92V77H340.333V97H337.133V96.08ZM351.143 97C349.783 97 348.743 96.56 348.023 95.68C347.303 94.8 346.943 93.64 346.943 92.2V80H344.343V77H346.943V72.2H350.343V77H354.983V80H350.343V92.4C350.343 92.9867 350.49 93.4 350.783 93.64C351.076 93.88 351.53 94 352.143 94H354.983V97H351.143ZM372.885 90.6C372.885 92.84 372.325 94.4667 371.205 95.48C370.112 96.4933 368.405 97 366.085 97H365.565C363.245 97 361.525 96.4933 360.405 95.48C359.312 94.4667 358.765 92.84 358.765 90.6V83.4C358.765 81.16 359.312 79.5333 360.405 78.52C361.525 77.5067 363.245 77 365.565 77H366.085C368.405 77 370.112 77.5067 371.205 78.52C372.325 79.5333 372.885 81.16 372.885 83.4V90.6ZM369.485 82.6C369.485 81.7733 369.232 81.1333 368.725 80.68C368.218 80.2267 367.472 80 366.485 80H365.165C364.178 80 363.432 80.2267 362.925 80.68C362.418 81.1333 362.165 81.7733 362.165 82.6V91.4C362.165 92.2267 362.418 92.8667 362.925 93.32C363.432 93.7733 364.178 94 365.165 94H366.485C367.472 94 368.218 93.7733 368.725 93.32C369.232 92.8667 369.485 92.2267 369.485 91.4V82.6Z" fill="black"/>
<path d="M185.733 97L184.213 89.92H176.413L174.853 97H171.293L178.053 69H182.653L189.293 97H185.733ZM180.293 71.64L177.053 86.92H183.573L180.293 71.64ZM204.053 92C204.053 93.68 203.533 94.9333 202.493 95.76C201.48 96.5867 200 97 198.053 97H192.893V94H198.453C199.173 94 199.72 93.8533 200.093 93.56C200.466 93.24 200.653 92.7867 200.653 92.2V90.08C200.653 88.88 200.08 88.28 198.933 88.28H198.253C196.386 88.28 194.986 87.88 194.053 87.08C193.146 86.2533 192.693 84.96 192.693 83.2V82.04C192.693 80.2533 193.2 78.9733 194.213 78.2C195.226 77.4 196.72 77 198.693 77H203.253V80H198.293C197.626 80 197.093 80.16 196.693 80.48C196.293 80.7733 196.093 81.2133 196.093 81.8V83.24C196.093 83.8533 196.266 84.3067 196.613 84.6C196.986 84.8933 197.453 85.04 198.013 85.04H198.573C200.36 85.04 201.72 85.48 202.653 86.36C203.586 87.2133 204.053 88.4933 204.053 90.2V92ZM214.87 72C214.443 72 214.096 72.12 213.83 72.36C213.59 72.5733 213.47 72.8533 213.47 73.2V77H218.31V80H213.47V97H210.07V80H207.47V77H210.07V73.4C210.07 72.04 210.456 70.9733 211.23 70.2C212.003 69.4 213.003 69 214.23 69H218.71V72H214.87ZM233.496 97C233.149 97 232.763 96.8933 232.336 96.68C231.936 96.4667 231.589 96.1733 231.296 95.8C230.683 96.6 229.869 97 228.856 97H226.096C224.069 97 222.589 96.6 221.656 95.8C220.749 94.9733 220.296 93.5733 220.296 91.6V90.8C220.296 86.6667 222.243 84.6 226.136 84.6H230.296V82.6C230.296 81.7733 230.043 81.1333 229.536 80.68C229.029 80.2267 228.283 80 227.296 80H221.896V77H226.896C229.216 77 230.923 77.5067 232.016 78.52C233.136 79.5333 233.696 81.16 233.696 83.4V93C233.696 93.4 233.843 93.7067 234.136 93.92C234.456 94.1067 234.976 94.2 235.696 94.2V97H233.496ZM228.456 94C229.256 94 229.763 93.8133 229.976 93.44C230.189 93.0667 230.296 92.5867 230.296 92V87.6H226.096C225.403 87.6 224.829 87.8267 224.376 88.28C223.923 88.7333 223.696 89.3067 223.696 90V92C223.696 92.6933 223.856 93.2 224.176 93.52C224.496 93.84 225.003 94 225.696 94H228.456ZM243.685 97C242.778 97 241.978 96.68 241.285 96.04C240.618 95.4 240.285 94.3867 240.285 93V69H243.685V92.8C243.685 93.2267 243.792 93.5333 244.005 93.72C244.218 93.9067 244.578 94 245.085 94H245.885V97H243.685ZM254.885 97C253.525 97 252.485 96.56 251.765 95.68C251.045 94.8 250.685 93.64 250.685 92.2V80H248.085V77H250.685V72.2H254.085V77H258.725V80H254.085V92.4C254.085 92.9867 254.232 93.4 254.525 93.64C254.818 93.88 255.272 94 255.885 94H258.725V97H254.885Z" fill="#D97218"/>
</svg>