<svg width="26" height="26" viewBox="0 0 26 26" fill="none" xmlns="http://www.w3.org/2000/svg">
<path d="M4.33334 21.6666C3.73751 21.6666 3.22744 21.4544 2.80313 21.0301C2.37882 20.6058 2.16667 20.0958 2.16667 19.4999V6.49992C2.16667 5.90409 2.37882 5.39402 2.80313 4.96971C3.22744 4.5454 3.73751 4.33325 4.33334 4.33325H21.6667C22.2625 4.33325 22.7726 4.5454 23.1969 4.96971C23.6212 5.39402 23.8333 5.90409 23.8333 6.49992V19.4999C23.8333 20.0958 23.6212 20.6058 23.1969 21.0301C22.7726 21.4544 22.2625 21.6666 21.6667 21.6666H4.33334ZM13 14.0833L4.33334 8.66658V19.4999H21.6667V8.66658L13 14.0833ZM13 11.9166L21.6667 6.49992H4.33334L13 11.9166ZM4.33334 8.66658V6.49992V19.4999V8.66658Z" fill="#1D1B20"/>
</svg>