<svg width="21" height="21" viewBox="0 0 21 21" fill="none" xmlns="http://www.w3.org/2000/svg">
<path d="M18.7778 3.61725C18.6009 2.60335 18.0716 1.68447 17.2834 1.02268C16.4951 0.360893 15.4985 -0.00129105 14.4692 5.05325e-06H6.51988C5.48984 -0.00156102 4.4924 0.360931 3.70371 1.02345C2.91502 1.68598 2.38584 2.60591 2.20963 3.62075L0.0667505 15.8708C-0.0432929 16.4995 -0.0144239 17.1447 0.151332 17.7611C0.317088 18.3775 0.615715 18.9502 1.02626 19.4389C1.43681 19.9277 1.94933 20.3207 2.52787 20.5904C3.10641 20.86 3.73695 20.9999 4.37525 21H16.6252C17.264 21.0001 17.895 20.8603 18.4739 20.5905C19.0529 20.3206 19.5657 19.9273 19.9764 19.4382C20.3871 18.949 20.6857 18.3758 20.8513 17.7589C21.0168 17.142 21.0453 16.4963 20.9346 15.8673L18.7778 3.61725ZM18.6378 18.3129C18.3911 18.6066 18.0831 18.8428 17.7354 19.0047C17.3877 19.1666 17.0088 19.2503 16.6252 19.25H4.37525C3.99215 19.25 3.6137 19.1662 3.26645 19.0044C2.91921 18.8425 2.61159 18.6067 2.36519 18.3133C2.11879 18.02 1.93959 17.6763 1.84016 17.3063C1.74072 16.9363 1.72348 16.5491 1.78963 16.1718L3.9325 3.92175C4.03919 3.31313 4.35716 2.76165 4.83044 2.3644C5.30372 1.96715 5.90197 1.74958 6.51988 1.75001H14.4692C15.0864 1.75013 15.6839 1.96772 16.1566 2.36457C16.6293 2.76142 16.947 3.31215 17.054 3.92001L19.2091 16.17C19.276 16.5472 19.2596 16.9346 19.1609 17.3047C19.0621 17.6749 18.8836 18.019 18.6378 18.3129ZM11.3753 4.375V6.125C11.3753 6.35707 11.2831 6.57963 11.119 6.74372C10.9549 6.90782 10.7323 7 10.5003 7C10.2682 7 10.0456 6.90782 9.88153 6.74372C9.71744 6.57963 9.62525 6.35707 9.62525 6.125V4.375C9.62525 4.14294 9.71744 3.92038 9.88153 3.75629C10.0456 3.59219 10.2682 3.50001 10.5003 3.50001C10.7323 3.50001 10.9549 3.59219 11.119 3.75629C11.2831 3.92038 11.3753 4.14294 11.3753 4.375ZM11.3753 9.625V11.375C11.3753 11.6071 11.2831 11.8296 11.119 11.9937C10.9549 12.1578 10.7323 12.25 10.5003 12.25C10.2682 12.25 10.0456 12.1578 9.88153 11.9937C9.71744 11.8296 9.62525 11.6071 9.62525 11.375V9.625C9.62525 9.39294 9.71744 9.17038 9.88153 9.00629C10.0456 8.84219 10.2682 8.75 10.5003 8.75C10.7323 8.75 10.9549 8.84219 11.119 9.00629C11.2831 9.17038 11.3753 9.39294 11.3753 9.625ZM11.3753 14.875V16.625C11.3753 16.8571 11.2831 17.0796 11.119 17.2437C10.9549 17.4078 10.7323 17.5 10.5003 17.5C10.2682 17.5 10.0456 17.4078 9.88153 17.2437C9.71744 17.0796 9.62525 16.8571 9.62525 16.625V14.875C9.62525 14.6429 9.71744 14.4204 9.88153 14.2563C10.0456 14.0922 10.2682 14 10.5003 14C10.7323 14 10.9549 14.0922 11.119 14.2563C11.2831 14.4204 11.3753 14.6429 11.3753 14.875Z" fill="black"/>
</svg>